<!-- Generated by IcoMoon.io -->
<svg version="1.1" xmlns="http://www.w3.org/2000/svg" width="32" height="32" viewBox="0 0 32 32">
<title>calendarioC</title>
<path fill="#98e2b2" d="M10.405 19.373h1.973v1.826h-1.973v-1.826z"></path>
<path fill="#98e2b2" d="M13.306 19.373h2.204v1.826h-2.204v-1.826z"></path>
<path fill="#98e2b2" d="M13.306 14.401h2.204v1.807h-2.204v-1.807z"></path>
<path fill="#98e2b2" d="M13.306 17.113h2.204v1.355h-2.204v-1.355z"></path>
<path fill="#98e2b2" d="M10.405 14.401h1.973v1.807h-1.973v-1.807z"></path>
<path fill="#98e2b2" d="M10.405 17.113h1.973v1.355h-1.973v-1.355z"></path>
<path fill="#98e2b2" d="M16.439 19.373h2.204v1.826h-2.204v-1.826z"></path>
<path fill="#98e2b2" d="M19.572 17.113h1.973v1.355h-1.973v-1.355z"></path>
<path fill="#98e2b2" d="M19.572 14.401h1.973v1.807h-1.973v-1.807z"></path>
<path fill="#98e2b2" d="M16.439 17.113h2.204v1.355h-2.204v-1.355z"></path>
<path fill="#98e2b2" d="M15.975 4.191c-6.497 0-11.763 5.267-11.763 11.763s5.267 11.763 11.763 11.763c6.497 0 11.763-5.267 11.763-11.763s-5.267-11.763-11.763-11.763zM22.937 21.876c0 0.374-0.311 0.679-0.696 0.679h-12.532c-0.385 0-0.696-0.304-0.696-0.679v-9.83c0-0.374 0.311-0.678 0.696-0.678h2.321v-1.111c0-0.498 0.416-0.904 0.928-0.904s0.928 0.406 0.928 0.904v1.111h4.177v-1.111c0-0.498 0.416-0.904 0.928-0.904s0.928 0.406 0.928 0.904v1.111h2.321c0.385 0 0.696 0.303 0.696 0.678v9.83z"></path>
<path fill="#98e2b2" d="M16.439 14.401h2.204v1.807h-2.204v-1.807z"></path>
<path fill="#98e2b2" d="M19.572 19.373h1.973v1.826h-1.973v-1.826z"></path>
</svg>
