<svg aria-hidden="true" style="position: absolute; width: 0; height: 0; overflow: hidden;" version="1.1" xmlns="http://www.w3.org/2000/svg" xmlns:xlink="http://www.w3.org/1999/xlink">
<defs>
<symbol id="icon-calendario" viewBox="0 0 32 32">
<title>calendario</title>
<path fill="#98e2b2" style="fill: var(--color1, #98e2b2)" d="M27.389 8.080h-3.869v-1.523c0-0.823-0.875-1.491-1.8-1.491s-1.8 0.669-1.8 1.491v1.523h-7.72v-1.523c0-0.823-0.875-1.491-1.8-1.491s-1.8 0.669-1.8 1.491v1.523h-3.844c-0.695 0-1.116 0.811-1.116 1.428v16.22c0 0.618 0.421 1.192 1.116 1.192h22.634c0.695 0 1.091-0.574 1.091-1.192v-16.22c0-0.617-0.396-1.428-1.091-1.428zM9.32 24.88h-3.52v-3.2h3.52v3.2zM9.32 20.4h-3.52v-2.56h3.52v2.56zM9.32 16.48h-3.52v-3.16h3.52v3.16zM14.92 24.88h-3.44v-3.2h3.44v3.2zM14.92 20.4h-3.44v-2.56h3.44v2.56zM14.92 16.48h-3.44v-3.16h3.44v3.16zM20.64 24.88h-3.44v-3.2h3.44v3.2zM20.64 20.4h-3.44v-2.56h3.44v2.56zM20.64 16.48h-3.44v-3.16h3.44v3.16zM26.32 24.88h-3.52v-3.2h3.52v3.2zM26.32 20.4h-3.52v-2.56h3.52v2.56zM26.32 16.48h-3.52v-3.16h3.52v3.16z"></path>
</symbol>
<symbol id="icon-calendarioC" viewBox="0 0 32 32">
<title>calendarioC</title>
<path fill="#98e2b2" style="fill: var(--color1, #98e2b2)" d="M10.405 19.373h1.973v1.826h-1.973v-1.826z"></path>
<path fill="#98e2b2" style="fill: var(--color1, #98e2b2)" d="M13.306 19.373h2.204v1.826h-2.204v-1.826z"></path>
<path fill="#98e2b2" style="fill: var(--color1, #98e2b2)" d="M13.306 14.401h2.204v1.807h-2.204v-1.807z"></path>
<path fill="#98e2b2" style="fill: var(--color1, #98e2b2)" d="M13.306 17.113h2.204v1.355h-2.204v-1.355z"></path>
<path fill="#98e2b2" style="fill: var(--color1, #98e2b2)" d="M10.405 14.401h1.973v1.807h-1.973v-1.807z"></path>
<path fill="#98e2b2" style="fill: var(--color1, #98e2b2)" d="M10.405 17.113h1.973v1.355h-1.973v-1.355z"></path>
<path fill="#98e2b2" style="fill: var(--color1, #98e2b2)" d="M16.439 19.373h2.204v1.826h-2.204v-1.826z"></path>
<path fill="#98e2b2" style="fill: var(--color1, #98e2b2)" d="M19.572 17.113h1.973v1.355h-1.973v-1.355z"></path>
<path fill="#98e2b2" style="fill: var(--color1, #98e2b2)" d="M19.572 14.401h1.973v1.807h-1.973v-1.807z"></path>
<path fill="#98e2b2" style="fill: var(--color1, #98e2b2)" d="M16.439 17.113h2.204v1.355h-2.204v-1.355z"></path>
<path fill="#98e2b2" style="fill: var(--color1, #98e2b2)" d="M15.975 4.191c-6.497 0-11.763 5.267-11.763 11.763s5.267 11.763 11.763 11.763c6.497 0 11.763-5.267 11.763-11.763s-5.267-11.763-11.763-11.763zM22.937 21.876c0 0.374-0.311 0.679-0.696 0.679h-12.532c-0.385 0-0.696-0.304-0.696-0.679v-9.83c0-0.374 0.311-0.678 0.696-0.678h2.321v-1.111c0-0.498 0.416-0.904 0.928-0.904s0.928 0.406 0.928 0.904v1.111h4.177v-1.111c0-0.498 0.416-0.904 0.928-0.904s0.928 0.406 0.928 0.904v1.111h2.321c0.385 0 0.696 0.303 0.696 0.678v9.83z"></path>
<path fill="#98e2b2" style="fill: var(--color1, #98e2b2)" d="M16.439 14.401h2.204v1.807h-2.204v-1.807z"></path>
<path fill="#98e2b2" style="fill: var(--color1, #98e2b2)" d="M19.572 19.373h1.973v1.826h-1.973v-1.826z"></path>
</symbol>
<symbol id="icon-calendarioN" viewBox="0 0 32 32">
<title>calendarioN</title>
<path fill="#98e2b2" style="fill: var(--color1, #98e2b2)" d="M26.812 8.065h-3.994v-1.912c0-0.858-0.715-1.555-1.597-1.555-0.881 0-1.597 0.697-1.597 1.555v1.912h-7.188v-1.912c0-0.858-0.716-1.555-1.597-1.555s-1.597 0.697-1.597 1.555v1.912h-3.994c-0.661 0-1.198 0.522-1.198 1.166v16.914c0 0.644 0.536 1.166 1.198 1.166h21.564c0.661 0 1.198-0.522 1.198-1.166v-16.914c0-0.644-0.536-1.166-1.198-1.166zM9.84 24.979h-3.394v-3.143h3.394v3.143zM9.84 20.28h-3.394v-2.332h3.394v2.332zM9.84 16.392h-3.394v-3.111h3.394v3.111zM15.231 24.979h-3.793v-3.143h3.793v3.143zM15.231 20.28h-3.793v-2.332h3.793v2.332zM15.231 16.392h-3.793v-3.111h3.793v3.111zM20.622 24.979h-3.793v-3.143h3.793v3.143zM20.622 20.28h-3.793v-2.332h3.793v2.332zM20.622 16.392h-3.793v-3.111h3.793v3.111zM25.613 24.979h-3.393v-3.143h3.393v3.143zM25.613 20.28h-3.393v-2.332h3.393v2.332zM25.613 16.392h-3.393v-3.111h3.393v3.111z"></path>
</symbol>
<symbol id="icon-home2" viewBox="0 0 32 32">
<title>home2</title>
<path d="M16 1l-16 16 3 3 3-3v13h8v-6h4v6h8v-13l3 3 3-3-16-16zM16 14c-1.105 0-2-0.895-2-2s0.895-2 2-2c1.105 0 2 0.895 2 2s-0.895 2-2 2z"></path>
</symbol>
<symbol id="icon-images" viewBox="0 0 36 32">
<title>images</title>
<path d="M34 4h-2v-2c0-1.1-0.9-2-2-2h-28c-1.1 0-2 0.9-2 2v24c0 1.1 0.9 2 2 2h2v2c0 1.1 0.9 2 2 2h28c1.1 0 2-0.9 2-2v-24c0-1.1-0.9-2-2-2zM4 6v20h-1.996c-0.001-0.001-0.003-0.002-0.004-0.004v-23.993c0.001-0.001 0.002-0.003 0.004-0.004h27.993c0.001 0.001 0.003 0.002 0.004 0.004v1.996h-24c-1.1 0-2 0.9-2 2v0zM34 29.996c-0.001 0.001-0.002 0.003-0.004 0.004h-27.993c-0.001-0.001-0.003-0.002-0.004-0.004v-23.993c0.001-0.001 0.002-0.003 0.004-0.004h27.993c0.001 0.001 0.003 0.002 0.004 0.004v23.993z"></path>
<path d="M30 11c0 1.657-1.343 3-3 3s-3-1.343-3-3 1.343-3 3-3 3 1.343 3 3z"></path>
<path d="M32 28h-24v-4l7-12 8 10h2l7-6z"></path>
</symbol>
<symbol id="icon-location" viewBox="0 0 32 32">
<title>location</title>
<path d="M16 0c-5.523 0-10 4.477-10 10 0 10 10 22 10 22s10-12 10-22c0-5.523-4.477-10-10-10zM16 16c-3.314 0-6-2.686-6-6s2.686-6 6-6 6 2.686 6 6-2.686 6-6 6z"></path>
</symbol>
<symbol id="icon-mail4" viewBox="0 0 32 32">
<title>mail4</title>
<path d="M16 0c-8.837 0-16 7.163-16 16s7.163 16 16 16 16-7.163 16-16-7.163-16-16-16zM8 8h16c0.286 0 0.563 0.061 0.817 0.177l-8.817 10.286-8.817-10.287c0.254-0.116 0.531-0.177 0.817-0.177zM6 22v-12c0-0.042 0.002-0.084 0.004-0.125l5.864 6.842-5.8 5.8c-0.045-0.167-0.069-0.34-0.069-0.517zM24 24h-16c-0.177 0-0.35-0.024-0.517-0.069l5.691-5.691 2.826 3.297 2.826-3.297 5.691 5.691c-0.167 0.045-0.34 0.069-0.517 0.069zM26 22c0 0.177-0.024 0.35-0.069 0.517l-5.8-5.8 5.865-6.842c0.003 0.041 0.004 0.083 0.004 0.125v12z"></path>
</symbol>
<symbol id="icon-facebook" viewBox="0 0 32 32">
<title>facebook</title>
<path d="M19 6h5v-6h-5c-3.86 0-7 3.14-7 7v3h-4v6h4v16h6v-16h5l1-6h-6v-3c0-0.542 0.458-1 1-1z"></path>
</symbol>
</defs>
</svg>
