<!-- Generated by IcoMoon.io -->
<svg version="1.1" xmlns="http://www.w3.org/2000/svg" width="32" height="32" viewBox="0 0 32 32">
<title>calendarioN</title>
<path fill="#98e2b2" d="M26.812 8.065h-3.994v-1.912c0-0.858-0.715-1.555-1.597-1.555-0.881 0-1.597 0.697-1.597 1.555v1.912h-7.188v-1.912c0-0.858-0.716-1.555-1.597-1.555s-1.597 0.697-1.597 1.555v1.912h-3.994c-0.661 0-1.198 0.522-1.198 1.166v16.914c0 0.644 0.536 1.166 1.198 1.166h21.564c0.661 0 1.198-0.522 1.198-1.166v-16.914c0-0.644-0.536-1.166-1.198-1.166zM9.84 24.979h-3.394v-3.143h3.394v3.143zM9.84 20.28h-3.394v-2.332h3.394v2.332zM9.84 16.392h-3.394v-3.111h3.394v3.111zM15.231 24.979h-3.793v-3.143h3.793v3.143zM15.231 20.28h-3.793v-2.332h3.793v2.332zM15.231 16.392h-3.793v-3.111h3.793v3.111zM20.622 24.979h-3.793v-3.143h3.793v3.143zM20.622 20.28h-3.793v-2.332h3.793v2.332zM20.622 16.392h-3.793v-3.111h3.793v3.111zM25.613 24.979h-3.393v-3.143h3.393v3.143zM25.613 20.28h-3.393v-2.332h3.393v2.332zM25.613 16.392h-3.393v-3.111h3.393v3.111z"></path>
</svg>
