<!-- Generated by IcoMoon.io -->
<svg version="1.1" xmlns="http://www.w3.org/2000/svg" width="32" height="32" viewBox="0 0 32 32">
<title>calendario</title>
<path fill="#98e2b2" d="M27.389 8.080h-3.869v-1.523c0-0.823-0.875-1.491-1.8-1.491s-1.8 0.669-1.8 1.491v1.523h-7.72v-1.523c0-0.823-0.875-1.491-1.8-1.491s-1.8 0.669-1.8 1.491v1.523h-3.844c-0.695 0-1.116 0.811-1.116 1.428v16.22c0 0.618 0.421 1.192 1.116 1.192h22.634c0.695 0 1.091-0.574 1.091-1.192v-16.22c0-0.617-0.396-1.428-1.091-1.428zM9.32 24.88h-3.52v-3.2h3.52v3.2zM9.32 20.4h-3.52v-2.56h3.52v2.56zM9.32 16.48h-3.52v-3.16h3.52v3.16zM14.92 24.88h-3.44v-3.2h3.44v3.2zM14.92 20.4h-3.44v-2.56h3.44v2.56zM14.92 16.48h-3.44v-3.16h3.44v3.16zM20.64 24.88h-3.44v-3.2h3.44v3.2zM20.64 20.4h-3.44v-2.56h3.44v2.56zM20.64 16.48h-3.44v-3.16h3.44v3.16zM26.32 24.88h-3.52v-3.2h3.52v3.2zM26.32 20.4h-3.52v-2.56h3.52v2.56zM26.32 16.48h-3.52v-3.16h3.52v3.16z"></path>
</svg>
